<?xml version="1.0" encoding="UTF-8"?>
<svg width="24px" height="24px" viewBox="0 0 24 24" version="1.1" xmlns="http://www.w3.org/2000/svg">
    <g stroke="none" stroke-width="1" fill="none" fill-rule="evenodd">
        <path d="M18,4 L6,4 C4.8954305,4 4,4.8954305 4,6 L4,18 C4,19.1045695 4.8954305,20 6,20 L18,20 C19.1045695,20 20,19.1045695 20,18 L20,6 C20,4.8954305 19.1045695,4 18,4 Z M6,2 C3.790861,2 2,3.790861 2,6 L2,18 C2,20.209139 3.790861,22 6,22 L18,22 C20.209139,22 22,20.209139 22,18 L22,6 C22,3.790861 20.209139,2 18,2 L6,2 Z" fill="currentColor" fill-rule="nonzero"/>
        <path d="M7,7 L17,7 L17,17 L7,17 L7,7 Z M9,9 L9,15 L15,15 L15,9 L9,9 Z" fill="currentColor" fill-rule="nonzero"/>
    </g>
</svg>